<?xml version="1.0" encoding="UTF-8"?>
<svg xmlns="http://www.w3.org/2000/svg" width="1200" height="675" viewBox="0 0 1200 675" role="img" aria-label="Quick Select">
  <defs>
    <linearGradient id="bg" x1="0" y1="0" x2="1" y2="1">
      <stop offset="0%" stop-color="#7f1d1d"/>
      <stop offset="100%" stop-color="#fca5a5"/>
    </linearGradient>
    <pattern id="grid" width="36" height="36" patternUnits="userSpaceOnUse">
      <path d="M 36 0 L 0 0 0 36" fill="none" stroke="rgba(255,255,255,0.11)" stroke-width="1"/>
    </pattern>
  </defs>

  <rect width="1200" height="675" fill="url(#bg)"/>
  <rect width="1200" height="675" fill="url(#grid)"/>

  <circle cx="1020" cy="120" r="120" fill="rgba(255,255,255,0.12)"/>
  <circle cx="180" cy="560" r="160" fill="rgba(255,255,255,0.09)"/>
  <rect x="70" y="70" width="1060" height="535" rx="28" fill="rgba(15,23,42,0.28)" stroke="rgba(255,255,255,0.22)"/>

  <text x="120" y="170" font-family="Inter, Segoe UI, Arial, sans-serif" font-size="28" font-weight="700" fill="rgba(255,255,255,0.9)">Vizualizare algoritm</text>
  <text x="120" y="250" font-family="Inter, Segoe UI, Arial, sans-serif" font-size="58" font-weight="800" fill="#ffffff">Quick Select</text>

  <rect x="120" y="300" width="360" height="46" rx="23" fill="rgba(255,255,255,0.16)"/>
  <circle cx="150" cy="323" r="10" fill="#ef4444"/>
  <text x="176" y="331" font-family="Inter, Segoe UI, Arial, sans-serif" font-size="24" font-weight="700" fill="#f8fafc">Categorie: sortare</text>

  <g transform="translate(760 220)">
    <rect x="0" y="0" width="280" height="220" rx="20" fill="rgba(255,255,255,0.14)" stroke="rgba(255,255,255,0.25)"/>
    <path d="M40 166 L100 102 L146 136 L228 64" fill="none" stroke="#ffffff" stroke-width="8" stroke-linecap="round" stroke-linejoin="round"/>
    <circle cx="40" cy="166" r="8" fill="#ffffff"/>
    <circle cx="100" cy="102" r="8" fill="#ffffff"/>
    <circle cx="146" cy="136" r="8" fill="#ffffff"/>
    <circle cx="228" cy="64" r="8" fill="#ffffff"/>
  </g>

  <text x="120" y="560" font-family="Inter, Segoe UI, Arial, sans-serif" font-size="20" fill="rgba(255,255,255,0.86)">Imagine locală stabilă pentru documentație, compatibilă cu previzualizarea din aplicație.</text>
  <text x="120" y="595" font-family="Inter, Segoe UI, Arial, sans-serif" font-size="16" fill="rgba(255,255,255,0.68)">sortare/quick_select.md</text>
</svg>
